<?xml version="1.0" encoding="utf-8"?>
<svg xmlns="http://www.w3.org/2000/svg"
	xmlns:xlink="http://www.w3.org/1999/xlink"
	width="53px" height="33px" viewBox="0 0 53 33">
<path fillRule="evenodd" d="M 1.64 9.43C 2.43 7.52 3.55 5.81 5.01 4.29 6.33 2.94 7.95 1.89 9.86 1.14 11.77 0.4 13.7 0.02 15.65 0.02 18.78 0.02 21.4 0.77 23.54 2.27 25.67 3.76 27.26 6.14 28.32 9.38 28.72 10.65 29.17 12.24 29.65 14.16 30.13 16.08 30.57 17.7 30.95 19.03 31.53 21.03 32.45 22.56 33.71 23.61 34.97 24.66 36.66 25.19 38.8 25.19 41.15 25.19 43.06 24.3 44.51 22.5 45.95 20.71 46.68 18.36 46.68 15.45 46.68 12.88 46.13 10.42 45.05 8.09 43.96 5.74 42.68 3.83 41.22 2.33 41.22 2.33 41.22 1.86 41.22 1.86 41.22 1.86 49.21 1.86 49.21 1.86 50.24 3.86 51.04 6.04 51.6 8.39 52.16 10.74 52.44 13.23 52.44 15.86 52.44 20.48 51.06 24.27 48.31 27.25 45.56 30.22 42.15 31.71 38.09 31.71 36.14 31.71 34.41 31.44 32.92 30.9 31.42 30.36 30.13 29.61 29.03 28.64 27.9 27.65 27 26.51 26.3 25.22 25.6 23.94 25.03 22.48 24.58 20.86 24.09 19.05 23.69 17.54 23.4 16.34 23.11 15.14 22.74 13.81 22.29 12.35 21.68 10.33 20.75 8.86 19.49 7.93 18.24 7 16.61 6.54 14.61 6.54 12.09 6.54 10.07 7.42 8.53 9.19 6.99 10.96 6.22 13.58 6.22 17.03 6.22 19.46 6.79 21.98 7.92 24.59 9.06 27.21 10.66 29.55 12.72 31.61 12.72 31.61 12.72 32.05 12.72 32.05 12.72 32.05 4.37 32.05 4.37 32.05 3.27 29.95 2.34 27.7 1.59 25.3 0.84 22.91 0.46 20.01 0.46 16.59 0.46 13.72 0.86 11.34 1.64 9.43Z" fill="rgb(248,248,248)"/></svg>