<?xml version="1.0" encoding="utf-8"?>
<svg xmlns="http://www.w3.org/2000/svg"
	xmlns:xlink="http://www.w3.org/1999/xlink"
	width="45px" height="71px" viewBox="0 0 45 71">
<path fillRule="evenodd" d="M 6.04 23.18C 6.04 23.18 19.97 9.81 19.97 9.81 19.97 9.81 19.97 68.13 19.97 68.13 19.97 69.73 21.3 71 22.96 71 24.62 71 25.96 69.73 25.96 68.13 25.96 68.13 25.96 9.81 25.96 9.81 25.96 9.81 39.88 23.18 39.88 23.18 40.46 23.73 41.23 24.03 41.99 24.03 42.77 24.03 43.52 23.76 44.09 23.18 45.27 22.05 45.27 20.24 44.09 19.12 44.09 19.12 25.07 0.85 25.07 0.85 24.51 0.31 23.74-0.01 22.96-0.01 22.16-0.01 21.41 0.29 20.85 0.85 20.85 0.85 1.83 19.12 1.83 19.12 0.65 20.24 0.65 22.05 1.83 23.18 2.98 24.29 4.89 24.29 6.04 23.18 6.04 23.18 6.04 23.18 6.04 23.18Z" fill="rgb(249,249,249)"/></svg>