<?xml version="1.0" encoding="utf-8"?>
<svg xmlns="http://www.w3.org/2000/svg"
	xmlns:xlink="http://www.w3.org/1999/xlink"
	width="93px" height="93px" viewBox="0 0 93 93">
<g><path fillRule="evenodd" d="M 32.64 73.5C 32.64 73.5 44 84.45 44 84.45 44 84.45 44 2.86 44 2.86 44 1.55 45.09 0.5 46.44 0.5 47.8 0.5 48.89 1.55 48.89 2.86 48.89 2.86 48.89 84.45 48.89 84.45 48.89 84.45 60.25 73.5 60.25 73.5 60.72 73.05 61.35 72.8 61.96 72.8 62.6 72.8 63.21 73.03 63.68 73.5 64.64 74.43 64.64 75.91 63.68 76.83 63.68 76.83 48.16 91.79 48.16 91.79 47.71 92.23 47.08 92.49 46.44 92.49 45.79 92.49 45.18 92.24 44.72 91.79 44.72 91.79 29.2 76.83 29.2 76.83 28.24 75.91 28.24 74.43 29.2 73.5 30.14 72.6 31.7 72.6 32.64 73.5 32.64 73.5 32.64 73.5 32.64 73.5Z" fill="rgb(249,249,249)"/><path fillRule="evenodd" d="M 32.64 19.49C 32.64 19.49 44 8.55 44 8.55 44 8.55 44 90.14 44 90.14 44 91.45 45.09 92.49 46.44 92.49 47.8 92.49 48.89 91.45 48.89 90.14 48.89 90.14 48.89 8.55 48.89 8.55 48.89 8.55 60.25 19.49 60.25 19.49 60.72 19.95 61.35 20.19 61.96 20.19 62.6 20.19 63.21 19.96 63.68 19.49 64.64 18.57 64.64 17.09 63.68 16.16 63.68 16.16 48.16 1.21 48.16 1.21 47.71 0.77 47.08 0.51 46.44 0.51 45.79 0.51 45.18 0.75 44.72 1.21 44.72 1.21 29.2 16.16 29.2 16.16 28.24 17.09 28.24 18.57 29.2 19.49 30.14 20.4 31.7 20.4 32.64 19.49 32.64 19.49 32.64 19.49 32.64 19.49Z" fill="rgb(249,249,249)"/><path fillRule="evenodd" d="M 19.5 32.65C 19.5 32.65 8.55 44.05 8.55 44.05 8.55 44.05 90.14 44.05 90.14 44.05 91.45 44.05 92.5 45.14 92.5 46.5 92.5 47.86 91.45 48.96 90.14 48.96 90.14 48.96 8.55 48.96 8.55 48.96 8.55 48.96 19.5 60.35 19.5 60.35 19.95 60.83 20.19 61.46 20.19 62.08 20.19 62.71 19.97 63.33 19.5 63.8 18.57 64.77 17.09 64.77 16.17 63.8 16.17 63.8 1.21 48.23 1.21 48.23 0.77 47.77 0.51 47.14 0.51 46.5 0.51 45.85 0.76 45.23 1.21 44.78 1.21 44.78 16.17 29.2 16.17 29.2 17.09 28.24 18.57 28.24 19.5 29.2 20.4 30.15 20.4 31.71 19.5 32.65 19.5 32.65 19.5 32.65 19.5 32.65Z" fill="rgb(249,249,249)"/><path fillRule="evenodd" d="M 73.5 32.65C 73.5 32.65 84.45 44.05 84.45 44.05 84.45 44.05 2.86 44.05 2.86 44.05 1.55 44.05 0.5 45.14 0.5 46.5 0.5 47.86 1.55 48.96 2.86 48.96 2.86 48.96 84.45 48.96 84.45 48.96 84.45 48.96 73.5 60.35 73.5 60.35 73.05 60.83 72.81 61.46 72.81 62.08 72.81 62.71 73.03 63.33 73.5 63.8 74.43 64.77 75.91 64.77 76.83 63.8 76.83 63.8 91.79 48.23 91.79 48.23 92.23 47.77 92.49 47.14 92.49 46.5 92.49 45.85 92.24 45.23 91.79 44.78 91.79 44.78 76.83 29.2 76.83 29.2 75.91 28.24 74.43 28.24 73.5 29.2 72.6 30.15 72.6 31.71 73.5 32.65 73.5 32.65 73.5 32.65 73.5 32.65Z" fill="rgb(249,249,249)"/></g></svg>