<?xml version="1.0" encoding="utf-8"?>
<svg xmlns="http://www.w3.org/2000/svg"
	xmlns:xlink="http://www.w3.org/1999/xlink"
	width="33px" height="101px" viewBox="0 0 33 101">
<style type="text/css"><![CDATA[
.style0 {
  font-size: 18px;
  font-family: "Tahoma";
  font-weight: 400;
  fill: rgb(249,249,249);
}
]]></style>
<g><text transform="matrix(3.56,0.00,0.00,3.70,-2.26,72.03)" class="style0"><tspan x="0.00" fill="rgb(248,248,248)">S</tspan></text><path fillRule="evenodd" d="M 4.65 82.36C 4.65 82.36 14.77 92.82 14.77 92.82 14.77 92.82 14.77 2.75 14.77 2.75 14.77 1.5 15.74 0.5 16.95 0.5 18.15 0.5 19.12 1.5 19.12 2.75 19.12 2.75 19.12 92.82 19.12 92.82 19.12 92.82 29.24 82.36 29.24 82.36 29.66 81.93 30.23 81.69 30.78 81.69 31.34 81.69 31.89 81.91 32.31 82.36 33.16 83.24 33.16 84.66 32.31 85.54 32.31 85.54 18.48 99.84 18.48 99.84 18.07 100.25 17.51 100.5 16.95 100.5 16.37 100.5 15.82 100.27 15.41 99.84 15.41 99.84 1.58 85.54 1.58 85.54 0.73 84.66 0.73 83.24 1.58 82.36 2.42 81.49 3.81 81.49 4.65 82.36 4.65 82.36 4.65 82.36 4.65 82.36Z" fill="rgb(255,255,255)"/></g></svg>