<?xml version="1.0" encoding="utf-8"?>
<svg xmlns="http://www.w3.org/2000/svg"
	xmlns:xlink="http://www.w3.org/1999/xlink"
	width="78px" height="78px" viewBox="0 0 78 78">
<path fillRule="evenodd" d="M 75.22 36.75C 75.22 36.75 68.74 36.75 68.74 36.75 68.74 36.75 73.32 32.16 73.32 32.16 74.18 31.31 74.18 29.92 73.32 29.06 72.47 28.2 71.08 28.2 70.22 29.06 70.22 29.06 62.53 36.75 62.53 36.75 62.53 36.75 51.13 36.75 51.13 36.75 50.81 34.98 50.12 33.34 49.13 31.92 49.13 31.92 57.19 23.86 57.19 23.86 57.19 23.86 68.07 23.86 68.07 23.86 69.28 23.86 70.26 22.88 70.26 21.67 70.26 20.45 69.28 19.47 68.07 19.47 68.07 19.47 61.58 19.47 61.58 19.47 61.58 19.47 66.17 14.88 66.17 14.88 67.02 14.03 67.02 12.64 66.17 11.78 65.31 10.92 63.92 10.92 63.06 11.78 63.06 11.78 58.47 16.37 58.47 16.37 58.47 16.37 58.47 9.88 58.47 9.88 58.47 8.66 57.49 7.68 56.28 7.68 55.06 7.68 54.08 8.66 54.08 9.88 54.08 9.88 54.08 20.76 54.08 20.76 54.08 20.76 46.02 28.81 46.02 28.81 44.6 27.83 42.96 27.14 41.19 26.82 41.19 26.82 41.19 15.42 41.19 15.42 41.19 15.42 48.89 7.73 48.89 7.73 49.74 6.87 49.74 5.48 48.89 4.62 48.03 3.76 46.64 3.76 45.78 4.62 45.78 4.62 41.19 9.21 41.19 9.21 41.19 9.21 41.19 2.72 41.19 2.72 41.19 1.51 40.21 0.52 39 0.52 37.78 0.52 36.8 1.51 36.8 2.72 36.8 2.72 36.8 9.21 36.8 9.21 36.8 9.21 32.21 4.62 32.21 4.62 31.36 3.76 29.97 3.76 29.11 4.62 28.25 5.48 28.25 6.87 29.11 7.73 29.11 7.73 36.8 15.42 36.8 15.42 36.8 15.42 36.8 26.82 36.8 26.82 35.03 27.14 33.39 27.83 31.97 28.81 31.97 28.81 23.91 20.76 23.91 20.76 23.91 20.76 23.91 9.88 23.91 9.88 23.91 8.66 22.93 7.68 21.72 7.68 20.5 7.68 19.52 8.66 19.52 9.88 19.52 9.88 19.52 16.37 19.52 16.37 19.52 16.37 14.93 11.78 14.93 11.78 14.08 10.92 12.69 10.92 11.83 11.78 10.97 12.64 10.97 14.03 11.83 14.88 11.83 14.88 16.42 19.47 16.42 19.47 16.42 19.47 9.93 19.47 9.93 19.47 8.72 19.47 7.73 20.45 7.73 21.67 7.73 22.88 8.72 23.86 9.93 23.86 9.93 23.86 20.81 23.86 20.81 23.86 20.81 23.86 28.87 31.92 28.87 31.92 27.88 33.34 27.19 34.98 26.87 36.75 26.87 36.75 15.47 36.75 15.47 36.75 15.47 36.75 7.78 29.06 7.78 29.06 6.92 28.2 5.53 28.2 4.67 29.06 3.81 29.92 3.81 31.31 4.67 32.16 4.67 32.16 9.26 36.75 9.26 36.75 9.26 36.75 2.77 36.75 2.77 36.75 1.56 36.75 0.57 37.73 0.57 38.95 0.57 40.16 1.56 41.14 2.77 41.14 2.77 41.14 9.26 41.14 9.26 41.14 9.26 41.14 4.67 45.73 4.67 45.73 3.81 46.59 3.81 47.98 4.67 48.84 5.53 49.69 6.92 49.69 7.78 48.84 7.78 48.84 15.47 41.14 15.47 41.14 15.47 41.14 26.87 41.14 26.87 41.14 27.19 42.91 27.88 44.55 28.87 45.97 28.87 45.97 20.81 54.03 20.81 54.03 20.81 54.03 9.93 54.03 9.93 54.03 8.72 54.03 7.73 55.01 7.73 56.23 7.73 57.44 8.72 58.42 9.93 58.42 9.93 58.42 16.42 58.42 16.42 58.42 16.42 58.42 11.83 63.01 11.83 63.01 10.97 63.87 10.97 65.26 11.83 66.12 12.69 66.97 14.08 66.97 14.93 66.12 14.93 66.12 19.52 61.53 19.52 61.53 19.52 61.53 19.52 68.02 19.52 68.02 19.52 69.23 20.5 70.21 21.72 70.21 22.93 70.21 23.91 69.23 23.91 68.02 23.91 68.02 23.91 57.14 23.91 57.14 23.91 57.14 31.97 49.08 31.97 49.08 33.39 50.07 35.03 50.76 36.8 51.08 36.8 51.08 36.8 62.48 36.8 62.48 36.8 62.48 29.11 70.17 29.11 70.17 28.25 71.03 28.25 72.42 29.11 73.27 29.97 74.13 31.36 74.13 32.21 73.27 32.21 73.27 36.8 68.69 36.8 68.69 36.8 68.69 36.8 75.17 36.8 75.17 36.8 76.39 37.78 77.37 39 77.37 40.21 77.37 41.19 76.39 41.19 75.17 41.19 75.17 41.19 68.69 41.19 68.69 41.19 68.69 45.78 73.27 45.78 73.27 46.64 74.13 48.03 74.13 48.89 73.27 49.74 72.42 49.74 71.03 48.89 70.17 48.89 70.17 41.19 62.48 41.19 62.48 41.19 62.48 41.19 51.08 41.19 51.08 42.96 50.76 44.6 50.07 46.02 49.08 46.02 49.08 54.08 57.14 54.08 57.14 54.08 57.14 54.08 68.02 54.08 68.02 54.08 69.23 55.06 70.21 56.28 70.21 57.49 70.21 58.47 69.23 58.47 68.02 58.47 68.02 58.47 61.53 58.47 61.53 58.47 61.53 63.06 66.12 63.06 66.12 63.92 66.97 65.31 66.97 66.17 66.12 67.02 65.26 67.02 63.87 66.17 63.01 66.17 63.01 61.58 58.42 61.58 58.42 61.58 58.42 68.07 58.42 68.07 58.42 69.28 58.42 70.26 57.44 70.26 56.23 70.26 55.01 69.28 54.03 68.07 54.03 68.07 54.03 57.19 54.03 57.19 54.03 57.19 54.03 49.13 45.97 49.13 45.97 50.12 44.55 50.81 42.91 51.13 41.14 51.13 41.14 62.53 41.14 62.53 41.14 62.53 41.14 70.22 48.84 70.22 48.84 71.08 49.69 72.47 49.69 73.32 48.84 74.18 47.98 74.18 46.59 73.32 45.73 73.32 45.73 68.74 41.14 68.74 41.14 68.74 41.14 75.22 41.14 75.22 41.14 76.44 41.14 77.42 40.16 77.42 38.95 77.42 37.73 76.44 36.75 75.22 36.75Z" fill="rgb(255,255,255)"/></svg>