<?xml version="1.0" encoding="utf-8"?>
<svg xmlns="http://www.w3.org/2000/svg"
	xmlns:xlink="http://www.w3.org/1999/xlink"
	width="18px" height="18px" viewBox="0 0 18 18">
<path fillRule="evenodd" d="M 15.15 10.73C 14.76 10.32 14.29 10.1 13.78 10.1 13.29 10.1 12.81 10.32 12.4 10.73 12.4 10.73 11.12 12 11.12 12 11.01 11.94 10.91 11.89 10.81 11.83 10.66 11.76 10.52 11.69 10.41 11.62 9.21 10.86 8.12 9.87 7.07 8.6 6.57 7.96 6.23 7.42 5.98 6.88 6.31 6.58 6.62 6.26 6.92 5.96 7.03 5.85 7.15 5.73 7.26 5.62 8.11 4.77 8.11 3.67 7.26 2.83 7.26 2.83 6.15 1.73 6.15 1.73 6.03 1.6 5.9 1.47 5.78 1.34 5.53 1.09 5.28 0.83 5.01 0.59 4.62 0.2 4.15-0 3.66-0 3.16-0 2.69 0.2 2.28 0.59 2.28 0.59 2.27 0.6 2.27 0.6 2.27 0.6 0.9 1.98 0.9 1.98 0.38 2.5 0.08 3.13 0.02 3.86-0.08 5.04 0.27 6.13 0.53 6.85 1.19 8.61 2.17 10.25 3.63 12 5.41 14.1 7.54 15.77 9.98 16.94 10.91 17.38 12.16 17.9 13.54 17.99 13.63 18 13.72 18 13.8 18 14.74 18 15.52 17.67 16.14 17 16.14 16.99 16.15 16.99 16.15 16.98 16.36 16.73 16.61 16.5 16.86 16.25 17.04 16.08 17.21 15.91 17.39 15.73 17.79 15.31 18 14.83 18 14.33 18 13.83 17.79 13.35 17.38 12.95 17.38 12.95 15.15 10.73 15.15 10.73ZM 16.6 14.98C 16.6 14.98 16.6 14.98 16.6 14.98 16.44 15.15 16.28 15.3 16.11 15.47 15.85 15.72 15.58 15.98 15.33 16.27 14.92 16.71 14.44 16.91 13.8 16.91 13.74 16.91 13.68 16.91 13.62 16.91 12.41 16.83 11.3 16.37 10.46 15.97 8.17 14.86 6.15 13.29 4.48 11.31 3.1 9.65 2.18 8.12 1.56 6.47 1.19 5.47 1.05 4.68 1.11 3.95 1.15 3.48 1.33 3.08 1.67 2.75 1.67 2.75 3.05 1.37 3.05 1.37 3.25 1.19 3.46 1.09 3.67 1.09 3.92 1.09 4.13 1.24 4.26 1.37 4.26 1.37 4.27 1.38 4.27 1.38 4.52 1.61 4.75 1.85 5 2.1 5.12 2.23 5.25 2.36 5.38 2.5 5.38 2.5 6.49 3.6 6.49 3.6 6.92 4.02 6.92 4.42 6.49 4.85 6.37 4.96 6.26 5.08 6.14 5.19 5.8 5.54 5.48 5.86 5.12 6.18 5.12 6.18 5.11 6.19 5.1 6.2 4.76 6.54 4.82 6.88 4.89 7.11 4.89 7.11 4.91 7.15 4.91 7.15 5.19 7.84 5.6 8.5 6.21 9.27 6.21 9.27 6.22 9.28 6.22 9.28 7.34 10.65 8.51 11.72 9.81 12.54 9.98 12.64 10.15 12.73 10.31 12.81 10.46 12.88 10.6 12.95 10.71 13.02 10.73 13.03 10.75 13.04 10.76 13.05 10.9 13.12 11.03 13.15 11.16 13.15 11.5 13.15 11.71 12.94 11.78 12.87 11.78 12.87 13.16 11.49 13.16 11.49 13.3 11.35 13.52 11.19 13.78 11.19 14.03 11.19 14.23 11.35 14.36 11.48 14.36 11.48 16.6 13.71 16.6 13.71 17.02 14.12 17.02 14.55 16.6 14.98 16.6 14.98 16.6 14.98 16.6 14.98Z" fill="rgb(0,151,209)"/></svg>