<?xml version="1.0" encoding="utf-8"?>
<svg xmlns="http://www.w3.org/2000/svg"
	xmlns:xlink="http://www.w3.org/1999/xlink"
	width="56px" height="56px" viewBox="0 0 56 56">
<path fillRule="evenodd" d="M 28 56C 27.64 56 27.32 55.8 27.16 55.48 27.16 55.48 0.1 1.36 0.1 1.36-0.09 0.98-0 0.52 0.31 0.24 0.63-0.04 1.09-0.07 1.44 0.16 1.44 0.16 28 17.56 28 17.56 28 17.56 54.55 0.16 54.55 0.16 54.9-0.07 55.37-0.04 55.68 0.24 56 0.52 56.09 0.98 55.9 1.36 55.9 1.36 28.83 55.48 28.83 55.48 28.67 55.8 28.35 56 28 56" fill="rgb(249,249,249)"/></svg>